<svg width="66" height="66" viewBox="0 0 66 66" fill="none" xmlns="http://www.w3.org/2000/svg">
<path d="M1.6074 40.2923C0.656836 39.3418 0.454662 37.8749 1.11264 36.7026L8.63842 23.2946C9.14073 22.3997 10.0656 21.8237 11.0904 21.7675L24.0169 21.0592C24.8335 21.0145 25.6025 20.6294 26.1392 20.0124C40.2823 3.75602 48.8102 -0.355345 62.508 0.0234173C64.0126 0.0650227 65.2242 1.27245 65.2636 2.77716C65.6561 17.7465 60.0123 26.1195 45.5359 39.268C44.9536 39.7969 44.5923 40.5362 44.5439 41.3214L43.7413 54.3408C43.6795 55.3437 43.1197 56.249 42.2501 56.7525L28.9859 64.4318C27.8811 65.0714 26.4925 64.9418 25.5252 64.1088L24.6809 63.3818C23.7973 62.621 23.4347 61.4171 23.751 60.2947L26.1263 51.8662C26.418 50.8311 26.1333 49.7191 25.3802 48.9514L16.5832 39.9853C15.7993 39.1863 14.6357 38.8902 13.5651 39.2173L5.30617 41.7409C4.24546 42.065 3.09246 41.7774 2.30819 40.9931L1.6074 40.2923Z" fill="#F9F9F9"/>
<path d="M12.7196 43.9947C13.3915 42.872 14.9427 42.6862 15.8608 43.6184L20.7428 48.576C21.7086 49.5567 21.4182 51.197 20.1745 51.7866L9.21736 56.9806C7.43008 57.8278 5.62884 55.8436 6.64451 54.1464L12.7196 43.9947Z" fill="#F4C358"/>
</svg>
