<svg width="505" height="507" viewBox="0 0 505 507" fill="none" xmlns="http://www.w3.org/2000/svg">
<path d="M9.10861 308.359C3.72206 302.973 2.57642 294.661 6.30499 288.018L68.492 177.225C71.3384 172.154 76.5796 168.889 82.3863 168.571L188.429 162.761C193.057 162.507 197.431 160.309 200.466 156.807C312.775 27.2427 379.233 -3.82189 488.961 0.359852C497.485 0.684681 504.352 7.51493 504.677 16.0383C509.256 135.926 465.497 201.181 350.368 305.465C347.064 308.458 345.004 312.661 344.729 317.111L338.16 423.68C337.81 429.363 334.637 434.493 329.71 437.346L220.405 500.628C214.145 504.252 206.276 503.518 200.795 498.798L187.925 487.715C182.918 483.404 180.863 476.582 182.655 470.222L203.078 397.753C204.731 391.888 203.118 385.586 198.85 381.236L125.641 306.62C121.199 302.092 114.605 300.414 108.539 302.267L37.4804 323.98C31.4696 325.816 24.936 324.187 20.4918 319.743L9.10861 308.359Z" fill="black"/>
<path d="M104.016 330.93C106.368 327.001 111.797 326.35 115.01 329.613L168.822 384.257C172.202 387.689 171.185 393.431 166.833 395.494L46.0597 452.744C39.8042 455.71 33.4998 448.765 37.0547 442.824L104.016 330.93Z" fill="black"/>
</svg>
